<?xml version="1.0" encoding="utf-8"?>
<!-- Generator: Adobe Illustrator 25.2.3, SVG Export Plug-In . SVG Version: 6.00 Build 0)  -->
<svg version="1.1" id="Layer_1" xmlns="http://www.w3.org/2000/svg" xmlns:xlink="http://www.w3.org/1999/xlink" x="0px" y="0px"
	 viewBox="0 0 182 44" style="enable-background:new 0 0 182 44;" xml:space="preserve">
<style type="text/css">
	.st0{fill:#222963;}
	.st1{fill:#FFFFFF;}
	.st2{fill:#232533;}
</style>
<path class="st0" d="M0,20h15.6l1.4-3.5H4.6v-4.8H16V8.3H4.6V3.5H17V0H0V20z"/>
<path class="st0" d="M26.7,0L19,20h3.6l5.9-15.1L34.4,20H39L31.3,0H26.7z"/>
<path class="st0" d="M78.5,13.9L68.4,0h-4.3H64v20h4.5V6.1L78.5,20h0.1h4.3H83V0h-4.5V13.9z"/>
<path class="st0" d="M126.7,0L113,20h4.1l9.5-13.9V20h4.3V0H126.7z"/>
<path class="st0" d="M116.8,0l-9.6,13.9V0h-4.3l-9.5,13.9V0H89v20h4.2l9.6-13.9V20h4.3L121,0H116.8z"/>
<path class="st0" d="M55.8,13.6c3-0.8,5.2-3.5,5.2-6.7c0-1.3-0.4-2.5-1-3.5c-1.1-1.9-3.2-3.3-5.6-3.5C54.3,0,42,0,42,0v19.9h4.6V3.5
	h6.4c2,0,3.6,1.6,3.6,3.5c0,1.7-1.3,3.1-3,3.4c-0.2,0-0.4,0.1-0.5,0.1h-3.9l6.9,9.6h4.4L55.8,13.6z"/>
<path class="st0" d="M176,3.5V0h-17v20h15.5l1.5-3.5h-12.4v-4.8H175V8.3h-11.4V3.5H176z"/>
<path class="st0" d="M150.8,13.6c3-0.8,5.2-3.5,5.2-6.7c0-1.3-0.4-2.5-0.9-3.5c-1.1-1.9-3.2-3.3-5.6-3.5C149.3,0,137,0,137,0v19.9
	h4.6V3.5h6.4c2,0,3.6,1.6,3.6,3.5c0,1.7-1.3,3.1-3,3.4c-0.2,0-0.4,0.1-0.5,0.1h-3.9l6.9,9.6h4.4L150.8,13.6z"/>
<path class="st1" d="M55,25h127l-5,17H55V25z"/>
<path class="st2" d="M61.7,37v-7.1h2.1c0.6,0,1.2,0.1,1.7,0.4c0.5,0.3,0.9,0.7,1.1,1.2c0.3,0.5,0.4,1.1,0.4,1.8v0.4
	c0,0.7-0.1,1.3-0.4,1.8c-0.3,0.5-0.6,0.9-1.1,1.2C65,36.9,64.4,37,63.8,37H61.7z M63,30.9V36h0.8c0.6,0,1.1-0.2,1.5-0.6
	c0.3-0.4,0.5-1,0.5-1.7v-0.4c0-0.8-0.2-1.4-0.5-1.8c-0.3-0.4-0.8-0.6-1.5-0.6H63z M75.4,33.8h-2.9V36h3.4v1h-4.6v-7.1h4.6v1h-3.4v2
	h2.9V33.8z M83.6,35.2c0-0.3-0.1-0.6-0.3-0.7c-0.2-0.2-0.6-0.3-1.2-0.5c-0.6-0.2-1-0.4-1.4-0.6c-0.6-0.4-1-0.9-1-1.6
	c0-0.6,0.2-1,0.7-1.4c0.5-0.4,1.1-0.6,1.8-0.6c0.5,0,0.9,0.1,1.3,0.3c0.4,0.2,0.7,0.4,0.9,0.8c0.2,0.3,0.3,0.7,0.3,1.1h-1.2
	c0-0.4-0.1-0.7-0.4-0.9c-0.2-0.2-0.6-0.3-1-0.3c-0.4,0-0.7,0.1-0.9,0.3c-0.2,0.2-0.3,0.4-0.3,0.7c0,0.3,0.1,0.5,0.4,0.7
	c0.2,0.2,0.6,0.3,1.2,0.5c0.6,0.2,1,0.3,1.3,0.6c0.3,0.2,0.6,0.4,0.7,0.7c0.2,0.3,0.2,0.6,0.2,1c0,0.6-0.2,1.1-0.7,1.4
	c-0.5,0.3-1.1,0.5-1.8,0.5c-0.5,0-1-0.1-1.4-0.3c-0.4-0.2-0.8-0.5-1-0.8c-0.2-0.3-0.4-0.7-0.4-1.2h1.2c0,0.4,0.1,0.7,0.4,0.9
	c0.3,0.2,0.6,0.3,1.1,0.3c0.4,0,0.8-0.1,1-0.3C83.5,35.7,83.6,35.5,83.6,35.2z M90.2,37H89v-7.1h1.2V37z M100.2,36.1
	c-0.3,0.3-0.6,0.6-1.1,0.8c-0.5,0.2-1,0.3-1.6,0.3c-0.6,0-1.1-0.1-1.6-0.4c-0.5-0.3-0.8-0.7-1.1-1.2c-0.2-0.5-0.4-1.1-0.4-1.8v-0.6
	c0-1.1,0.3-1.9,0.8-2.5c0.5-0.6,1.2-0.9,2.2-0.9c0.8,0,1.4,0.2,1.9,0.6s0.7,1,0.8,1.7H99c-0.1-0.9-0.6-1.3-1.5-1.3
	c-0.6,0-1,0.2-1.3,0.6c-0.3,0.4-0.4,1-0.4,1.8v0.5c0,0.8,0.2,1.4,0.5,1.8c0.3,0.4,0.8,0.6,1.4,0.6c0.6,0,1.1-0.1,1.3-0.4v-1.4h-1.5
	v-0.9h2.7V36.1z M110.2,37H109l-3.2-5v5h-1.2v-7.1h1.2L109,35v-5.1h1.2V37z M123.9,35.2c0-0.3-0.1-0.6-0.3-0.7
	c-0.2-0.2-0.6-0.3-1.2-0.5c-0.6-0.2-1-0.4-1.4-0.6c-0.6-0.4-1-0.9-1-1.6c0-0.6,0.2-1,0.7-1.4c0.5-0.4,1.1-0.6,1.8-0.6
	c0.5,0,0.9,0.1,1.3,0.3c0.4,0.2,0.7,0.4,0.9,0.8c0.2,0.3,0.3,0.7,0.3,1.1h-1.2c0-0.4-0.1-0.7-0.4-0.9c-0.2-0.2-0.6-0.3-1-0.3
	c-0.4,0-0.7,0.1-0.9,0.3c-0.2,0.2-0.3,0.4-0.3,0.7c0,0.3,0.1,0.5,0.4,0.7c0.2,0.2,0.6,0.3,1.2,0.5c0.6,0.2,1,0.3,1.3,0.6
	c0.3,0.2,0.6,0.4,0.7,0.7c0.2,0.3,0.2,0.6,0.2,1c0,0.6-0.2,1.1-0.7,1.4c-0.5,0.3-1.1,0.5-1.8,0.5c-0.5,0-1-0.1-1.4-0.3
	c-0.4-0.2-0.8-0.5-1-0.8c-0.2-0.3-0.4-0.7-0.4-1.2h1.2c0,0.4,0.1,0.7,0.4,0.9c0.3,0.2,0.6,0.3,1.1,0.3c0.4,0,0.8-0.1,1-0.3
	C123.8,35.7,123.9,35.5,123.9,35.2z M131.5,33.3l1.6-3.4h1.4l-2.4,4.5V37h-1.2v-2.6l-2.4-4.5h1.4L131.5,33.3z M141.9,35.2
	c0-0.3-0.1-0.6-0.3-0.7c-0.2-0.2-0.6-0.3-1.2-0.5c-0.6-0.2-1-0.4-1.4-0.6c-0.6-0.4-1-0.9-1-1.6c0-0.6,0.2-1,0.7-1.4
	c0.5-0.4,1.1-0.6,1.8-0.6c0.5,0,0.9,0.1,1.3,0.3c0.4,0.2,0.7,0.4,0.9,0.8c0.2,0.3,0.3,0.7,0.3,1.1h-1.2c0-0.4-0.1-0.7-0.4-0.9
	c-0.2-0.2-0.6-0.3-1-0.3c-0.4,0-0.7,0.1-0.9,0.3c-0.2,0.2-0.3,0.4-0.3,0.7c0,0.3,0.1,0.5,0.4,0.7c0.2,0.2,0.6,0.3,1.2,0.5
	c0.6,0.2,1,0.3,1.3,0.6c0.3,0.2,0.6,0.4,0.7,0.7c0.2,0.3,0.2,0.6,0.2,1c0,0.6-0.2,1.1-0.7,1.4c-0.5,0.3-1.1,0.5-1.8,0.5
	c-0.5,0-1-0.1-1.4-0.3c-0.4-0.2-0.8-0.5-1-0.8c-0.2-0.3-0.4-0.7-0.4-1.2h1.2c0,0.4,0.1,0.7,0.4,0.9c0.3,0.2,0.7,0.3,1.1,0.3
	c0.4,0,0.8-0.1,1-0.3C141.8,35.7,141.9,35.5,141.9,35.2z M152.4,30.9h-2.2V37h-1.2v-6.1h-2.2v-1h5.6V30.9z M160.5,33.8h-2.9V36h3.4
	v1h-4.6v-7.1h4.6v1h-3.4v2h2.9V33.8z M166.6,29.9l2.1,5.4l2-5.4h1.6V37H171v-2.3l0.1-3.1l-2.1,5.5h-0.9l-2.1-5.5l0.1,3.1V37H165
	v-7.1H166.6z"/>
</svg>
