
<svg xmlns="http://www.w3.org/2000/svg" version="1.1" xmlns:xlink="http://www.w3.org/1999/xlink" preserveAspectRatio="none" x="0px" y="0px" width="175px" height="21px" viewBox="0 0 175 21">
<defs>
<g id="Layer0_0_FILL">
<path fill="#FFFFFF" stroke="none" d="
M 31.05 0.65
L 26.45 0.65 18.6 20.5 22.25 20.5 28.3 5.45 34.25 20.5 38.95 20.5 31.05 0.65
M 59.6 4.15
Q 58.75 2.65 57.35 1.75 55.9 0.75 54.15 0.65
L 42.2 0.65 42.2 20.5 46.6 20.5 46.6 4.15 52.65 4.15
Q 54.05 4.15 55.1 5.1 56.1 6.1 56.1 7.55 56.1 8.8 55.3 9.8 54.45 10.7 53.3 10.95
L 49 10.95 55.7 20.5 59.95 20.5 55.5 14.15 55.55 14.15
Q 57.7 13.55 59.15 11.8 60.5 9.9 60.5 7.55 60.5 5.75 59.6 4.15
M 83.05 20.5
L 83.05 0.65 78.7 0.65 78.7 14.4 68.95 0.65 64.65 0.65 64.65 20.5 69 20.5 69 6.8 69.2 7 78.7 20.45 78.75 20.5 83.05 20.5
M 116.1 0.65
L 116.1 0.7 106.5 14.4 106.5 0.65 102.15 0.65 102.15 0.7 94.9 11.05
Q 94.3 11.85 93.7 12.7 93.5 12.9 93.4 13.1
L 92.45 14.4 92.45 0.65 88.1 0.65 88.1 20.5 92.4 20.5 102.15 6.8 102.15 20.5 106.45 20.5 120.4 0.65 116.1 0.65
M 130.95 0.65
L 126.6 0.65 126.6 0.7 112.65 20.5 116.85 20.5 126.6 6.8 126.6 20.5 130.95 20.5 130.95 0.65
M 154.5 7.55
Q 154.5 5.75 153.55 4.15 152.75 2.65 151.35 1.75 149.85 0.75 148.15 0.65
L 136.2 0.65 136.2 20.5 140.6 20.5 140.6 4.15 146.6 4.15
Q 148.05 4.15 149.1 5.1 150.1 6.1 150.1 7.55 150.1 8.8 149.25 9.8 148.45 10.75 147.2 10.95
L 142.95 10.95 149.7 20.5 153.95 20.5 149.5 14.15
Q 151.7 13.55 153.1 11.8 154.5 9.9 154.5 7.55
M 16.25 4.15
L 16.25 0.65 0.2 0.65 0.2 20.5 14.9 20.5 16.25 17.05 4.55 17.05 4.55 12.3 15.3 12.3 15.3 8.85 4.55 8.85 4.55 4.15 16.25 4.15
M 173.75 12.3
L 173.75 8.85 163 8.85 163 4.15 174.7 4.15 174.7 0.65 158.65 0.65 158.65 20.5 173.25 20.5 174.7 17.05 163 17.05 163 12.3 173.75 12.3 Z"/>
</g>
</defs>

<g transform="matrix( 1, 0, 0, 1, 0,0) ">
<use xlink:href="#Layer0_0_FILL"/>
</g>
</svg>
