<?xml version="1.0" encoding="utf-8"?>
<!-- Generator: Adobe Illustrator 25.2.3, SVG Export Plug-In . SVG Version: 6.00 Build 0)  -->
<svg version="1.1" id="Layer_1" xmlns="http://www.w3.org/2000/svg" xmlns:xlink="http://www.w3.org/1999/xlink" x="0px" y="0px"
	 viewBox="0 0 175 21" style="enable-background:new 0 0 175 21;" xml:space="preserve">
<style type="text/css">
	.st0{fill:#222963;}
</style>
<g transform="matrix( 1, 0, 0, 1, 0,0) ">
	<g>
		<g id="Layer0_0_FILL">
			<path class="st0" d="M31,0.6h-4.6l-7.9,19.9h3.6l6-15.1l6,15.1H39L31,0.6 M59.6,4.2c-0.6-1-1.3-1.8-2.2-2.4c-1-0.7-2-1-3.2-1.1
				h-12v19.9h4.4V4.2h6.1c0.9,0,1.7,0.3,2.4,0.9c0.7,0.7,1,1.5,1,2.5c0,0.8-0.3,1.6-0.8,2.2c-0.6,0.6-1.2,1-2,1.1H49l6.7,9.6H60
				l-4.5-6.4h0c1.4-0.4,2.6-1.2,3.6-2.3c0.9-1.3,1.3-2.7,1.3-4.2C60.5,6.3,60.2,5.2,59.6,4.2 M83.1,20.5V0.6h-4.4v13.8L68.9,0.6
				h-4.3v19.9H69V6.8L69.2,7l9.5,13.5l0.1,0H83.1 M116.1,0.6L116.1,0.6l-9.6,13.8V0.6h-4.3v0.1l-7.2,10.4c-0.4,0.5-0.8,1.1-1.2,1.6
				c-0.1,0.1-0.2,0.3-0.3,0.4l-1,1.3V0.6h-4.3v19.9h4.3l9.8-13.7v13.7h4.3l14-19.9H116.1 M130.9,0.6h-4.3v0.1l-13.9,19.8h4.2
				l9.8-13.7v13.7h4.3V0.6 M154.5,7.6c0-1.2-0.3-2.3-0.9-3.4c-0.5-1-1.3-1.8-2.2-2.4c-1-0.7-2.1-1-3.2-1.1h-11.9v19.9h4.4V4.2h6
				c1,0,1.8,0.3,2.5,0.9c0.7,0.7,1,1.5,1,2.5c0,0.8-0.3,1.6-0.9,2.2c-0.5,0.6-1.2,1-2.1,1.1h-4.2l6.8,9.6h4.2l-4.4-6.4
				c1.5-0.4,2.7-1.2,3.6-2.3C154,10.5,154.5,9.1,154.5,7.6 M16.2,4.2V0.6h-16v19.9h14.7l1.4-3.5H4.6v-4.7h10.8V8.9H4.6V4.2H16.2
				 M173.8,12.3V8.9H163V4.2h11.7V0.6h-16.1v19.9h14.6l1.4-3.5H163v-4.7H173.8z"/>
		</g>
	</g>
</g>
</svg>
